# xmcd
#
# Track frame offsets:
#	150
#	10164
#	41680
#	55606
#
# Disc length: 982 seconds
#
# Revision: 1
# Processed by: cddbd v1.5.1PL0 Copyright (c) Steve Scherf et al.
# Submitted via: CDex 1.50Beta5
#
DISCID=2603d404
DTITLE=Pop Chocolat - Leaflet
DYEAR=1900
DGENRE=Pop
TTITLE0=Visitor
TTITLE1=フワリ
TTITLE2=No Way!
TTITLE3=飛行機
EXTD=
EXTT0=
EXTT1=
EXTT2=
EXTT3=
PLAYORDER=
